# xmcd
#
# Track frame offsets: 
#        150
#        27761
#        50671
#        72337
#        98006
#        115668
#        133430
#        148819
#        170586
#        197121
#        234666
#
# Disc length: 3711 seconds
#
# Revision: 2
# Processed by: cddbd v1.5.2PL0 Copyright (c) Steve Scherf et al.
# Submitted via: ExactAudioCopy v0.99pb5
#
DISCID=a40e7d0b
DTITLE=Edgar Winter - Jazzin' The Blues
DYEAR=2004
DGENRE=Jazz/Blues
TTITLE0=Jazzin' The Blues
TTITLE1=Free Ride (Smooth)
TTITLE2=God Did It
TTITLE3=New Man
TTITLE4=More than Enough (Alien Blues)
TTITLE5=Brother Luke
TTITLE6=Hunk O'da Funk
TTITLE7=Big Bad Bottom
TTITLE8=Here's 2 Guitars
TTITLE9=Keys To The Kingdom
TTITLE10=Frankenstein (Frankie Swings)
EXTD=YEAR: 2004
EXTT0=
EXTT1=
EXTT2=
EXTT3=
EXTT4=
EXTT5=
EXTT6=
EXTT7=
EXTT8=
EXTT9=
EXTT10=
PLAYORDER=
